<svg xmlns="http://www.w3.org/2000/svg" xmlns:xlink="http://www.w3.org/1999/xlink" width="2000" zoomAndPan="magnify" viewBox="0 0 1500 1499.999933" height="2000" preserveAspectRatio="xMidYMid meet" version="1.0"><rect x="-150" width="1800" fill="#ffffff" y="-149.999993" height="1799.99992" fill-opacity="1"/><rect x="-150" width="1800" fill="#ffffff" y="-149.999993" height="1799.99992" fill-opacity="1"/><path fill="#30d1ff" d="M 322.65625 501.59375 L 884.984375 45.851562 C 965.183594 -18.703125 1082.53125 -6.964844 1147.085938 73.234375 C 1211.628906 153.417969 1198.925781 270.789062 1118.726562 335.332031 L 556.410156 790.097656 C 498.707031 837.039062 467.410156 905.5 465.464844 973.957031 L 295.300781 763.683594 L 294.308594 762.703125 C 229.765625 683.496094 242.484375 566.125 322.667969 501.582031 Z M 322.65625 501.59375 " fill-opacity="1" fill-rule="evenodd"/><path fill="#0372ff" d="M 859.550781 1164.675781 C 938.757812 1100.117188 1056.117188 1112.835938 1120.660156 1193.023438 C 1185.214844 1272.242188 1173.476562 1389.601562 1093.277344 1454.144531 C 1013.082031 1518.6875 895.734375 1506.960938 831.175781 1426.761719 C 766.632812 1346.566406 779.339844 1229.21875 859.539062 1164.660156 Z M 859.550781 1164.675781 " fill-opacity="1" fill-rule="evenodd"/><path fill="#30d1ff" d="M 884.984375 600.371094 C 965.183594 534.839844 1081.550781 547.554688 1146.109375 627.753906 C 1211.628906 706.972656 1198.914062 824.332031 1118.726562 888.875 L 827.296875 1125.554688 C 768.617188 1172.496094 738.300781 1241.933594 739.277344 1312.339844 L 566.1875 1098.160156 L 565.195312 1098.160156 C 500.652344 1017.960938 513.371094 900.601562 592.589844 836.058594 L 593.570312 836.058594 L 885 600.371094 Z M 884.984375 600.371094 " fill-opacity="1" fill-rule="evenodd"/></svg>