<svg xmlns="http://www.w3.org/2000/svg" xmlns:xlink="http://www.w3.org/1999/xlink" width="240" zoomAndPan="magnify" viewBox="0 0 180 48" height="64" preserveAspectRatio="xMidYMid meet" version="1.0"><defs><filter x="0%" y="0%" width="100%" height="100%" id="b473cbbef7"><feColorMatrix values="0 0 0 0 1 0 0 0 0 1 0 0 0 0 1 0 0 0 1 0" color-interpolation-filters="sRGB"/></filter><g/><clipPath id="9f9dd43f74"><path d="M 5 2.351562 L 32 2.351562 L 32 30 L 5 30 Z M 5 2.351562 " clip-rule="nonzero"/></clipPath><clipPath id="759d6cd2d8"><path d="M 20 33 L 31 33 L 31 44.964844 L 20 44.964844 Z M 20 33 " clip-rule="nonzero"/></clipPath><clipPath id="682eaad8ad"><path d="M 1.835938 0 L 178.164062 0 L 178.164062 47.019531 L 1.835938 47.019531 Z M 1.835938 0 " clip-rule="nonzero"/></clipPath><clipPath id="da4acade7b"><path d="M 0.835938 0 L 177.164062 0 L 177.164062 47.019531 L 0.835938 47.019531 Z M 0.835938 0 " clip-rule="nonzero"/></clipPath><clipPath id="e7c2f431ca"><path d="M 0.835938 0 L 177.164062 0 L 177.164062 47.019531 L 0.835938 47.019531 Z M 0.835938 0 " clip-rule="nonzero"/></clipPath><linearGradient x1="3.182469" gradientTransform="matrix(0.734344, 0, 0, 0.733977, 35.573981, 7.588783)" y1="-60.825534" x2="155.270944" gradientUnits="userSpaceOnUse" y2="91.262949" id="b4106e3d45"><stop stop-opacity="1" stop-color="rgb(18.818665%, 81.959534%, 100%)" offset="0"/><stop stop-opacity="1" stop-color="rgb(18.818665%, 81.959534%, 100%)" offset="0.125"/><stop stop-opacity="1" stop-color="rgb(18.818665%, 81.959534%, 100%)" offset="0.1875"/><stop stop-opacity="1" stop-color="rgb(18.792725%, 81.774902%, 99.861145%)" offset="0.210609"/><stop stop-opacity="1" stop-color="rgb(18.768311%, 81.590271%, 99.72229%)" offset="0.21875"/><stop stop-opacity="1" stop-color="rgb(18.734741%, 81.356812%, 99.546814%)" offset="0.222656"/><stop stop-opacity="1" stop-color="rgb(18.702698%, 81.124878%, 99.372864%)" offset="0.226562"/><stop stop-opacity="1" stop-color="rgb(18.670654%, 80.891418%, 99.197388%)" offset="0.230469"/><stop stop-opacity="1" stop-color="rgb(18.638611%, 80.659485%, 99.023438%)" offset="0.234375"/><stop stop-opacity="1" stop-color="rgb(18.606567%, 80.426025%, 98.847961%)" offset="0.238281"/><stop stop-opacity="1" stop-color="rgb(18.574524%, 80.192566%, 98.674011%)" offset="0.242188"/><stop stop-opacity="1" stop-color="rgb(18.540955%, 79.959106%, 98.498535%)" offset="0.246094"/><stop stop-opacity="1" stop-color="rgb(18.508911%, 79.727173%, 98.324585%)" offset="0.25"/><stop stop-opacity="1" stop-color="rgb(18.476868%, 79.493713%, 98.149109%)" offset="0.253906"/><stop stop-opacity="1" stop-color="rgb(18.444824%, 79.260254%, 97.975159%)" offset="0.257812"/><stop stop-opacity="1" stop-color="rgb(18.411255%, 79.026794%, 97.799683%)" offset="0.261719"/><stop stop-opacity="1" stop-color="rgb(18.379211%, 78.794861%, 97.625732%)" offset="0.265625"/><stop stop-opacity="1" stop-color="rgb(18.347168%, 78.561401%, 97.450256%)" offset="0.269531"/><stop stop-opacity="1" stop-color="rgb(18.315125%, 78.329468%, 97.276306%)" offset="0.273438"/><stop stop-opacity="1" stop-color="rgb(18.283081%, 78.096008%, 97.10083%)" offset="0.277344"/><stop stop-opacity="1" stop-color="rgb(18.251038%, 77.862549%, 96.92688%)" offset="0.28125"/><stop stop-opacity="1" stop-color="rgb(18.217468%, 77.629089%, 96.751404%)" offset="0.285156"/><stop stop-opacity="1" stop-color="rgb(18.185425%, 77.397156%, 96.577454%)" offset="0.289062"/><stop stop-opacity="1" stop-color="rgb(18.153381%, 77.163696%, 96.401978%)" offset="0.292969"/><stop stop-opacity="1" stop-color="rgb(18.121338%, 76.931763%, 96.228027%)" offset="0.296875"/><stop stop-opacity="1" stop-color="rgb(18.087769%, 76.698303%, 96.052551%)" offset="0.300781"/><stop stop-opacity="1" stop-color="rgb(18.055725%, 76.464844%, 95.878601%)" offset="0.304688"/><stop stop-opacity="1" stop-color="rgb(18.023682%, 76.231384%, 95.703125%)" offset="0.308594"/><stop stop-opacity="1" stop-color="rgb(17.991638%, 75.999451%, 95.529175%)" offset="0.3125"/><stop stop-opacity="1" stop-color="rgb(17.959595%, 75.765991%, 95.353699%)" offset="0.316406"/><stop stop-opacity="1" stop-color="rgb(17.927551%, 75.532532%, 95.179749%)" offset="0.320312"/><stop stop-opacity="1" stop-color="rgb(17.893982%, 75.299072%, 95.004272%)" offset="0.324219"/><stop stop-opacity="1" stop-color="rgb(17.861938%, 75.067139%, 94.830322%)" offset="0.328125"/><stop stop-opacity="1" stop-color="rgb(17.829895%, 74.833679%, 94.654846%)" offset="0.332031"/><stop stop-opacity="1" stop-color="rgb(17.797852%, 74.601746%, 94.480896%)" offset="0.335938"/><stop stop-opacity="1" stop-color="rgb(17.764282%, 74.368286%, 94.30542%)" offset="0.339844"/><stop stop-opacity="1" stop-color="rgb(17.732239%, 74.134827%, 94.13147%)" offset="0.34375"/><stop stop-opacity="1" stop-color="rgb(17.700195%, 73.901367%, 93.955994%)" offset="0.347656"/><stop stop-opacity="1" stop-color="rgb(17.668152%, 73.669434%, 93.782043%)" offset="0.351563"/><stop stop-opacity="1" stop-color="rgb(17.636108%, 73.435974%, 93.606567%)" offset="0.355469"/><stop stop-opacity="1" stop-color="rgb(17.604065%, 73.204041%, 93.432617%)" offset="0.359375"/><stop stop-opacity="1" stop-color="rgb(17.570496%, 72.970581%, 93.257141%)" offset="0.363281"/><stop stop-opacity="1" stop-color="rgb(17.538452%, 72.737122%, 93.083191%)" offset="0.367188"/><stop stop-opacity="1" stop-color="rgb(17.506409%, 72.503662%, 92.907715%)" offset="0.371094"/><stop stop-opacity="1" stop-color="rgb(17.474365%, 72.271729%, 92.733765%)" offset="0.375"/><stop stop-opacity="1" stop-color="rgb(17.440796%, 72.038269%, 92.558289%)" offset="0.378906"/><stop stop-opacity="1" stop-color="rgb(17.408752%, 71.80481%, 92.384338%)" offset="0.382813"/><stop stop-opacity="1" stop-color="rgb(17.376709%, 71.57135%, 92.208862%)" offset="0.386719"/><stop stop-opacity="1" stop-color="rgb(17.344666%, 71.339417%, 92.034912%)" offset="0.390625"/><stop stop-opacity="1" stop-color="rgb(17.312622%, 71.105957%, 91.859436%)" offset="0.394531"/><stop stop-opacity="1" stop-color="rgb(17.280579%, 70.874023%, 91.685486%)" offset="0.398438"/><stop stop-opacity="1" stop-color="rgb(17.247009%, 70.640564%, 91.51001%)" offset="0.402344"/><stop stop-opacity="1" stop-color="rgb(17.214966%, 70.407104%, 91.33606%)" offset="0.40625"/><stop stop-opacity="1" stop-color="rgb(17.182922%, 70.173645%, 91.160583%)" offset="0.410156"/><stop stop-opacity="1" stop-color="rgb(17.150879%, 69.941711%, 90.986633%)" offset="0.414062"/><stop stop-opacity="1" stop-color="rgb(17.11731%, 69.708252%, 90.811157%)" offset="0.417969"/><stop stop-opacity="1" stop-color="rgb(17.085266%, 69.476318%, 90.637207%)" offset="0.421875"/><stop stop-opacity="1" stop-color="rgb(17.053223%, 69.242859%, 90.461731%)" offset="0.425781"/><stop stop-opacity="1" stop-color="rgb(17.021179%, 69.009399%, 90.287781%)" offset="0.429688"/><stop stop-opacity="1" stop-color="rgb(16.989136%, 68.77594%, 90.112305%)" offset="0.433594"/><stop stop-opacity="1" stop-color="rgb(16.957092%, 68.544006%, 89.938354%)" offset="0.4375"/><stop stop-opacity="1" stop-color="rgb(16.923523%, 68.310547%, 89.762878%)" offset="0.441406"/><stop stop-opacity="1" stop-color="rgb(16.891479%, 68.078613%, 89.588928%)" offset="0.445313"/><stop stop-opacity="1" stop-color="rgb(16.859436%, 67.845154%, 89.413452%)" offset="0.449219"/><stop stop-opacity="1" stop-color="rgb(16.827393%, 67.611694%, 89.239502%)" offset="0.453125"/><stop stop-opacity="1" stop-color="rgb(16.793823%, 67.378235%, 89.064026%)" offset="0.457031"/><stop stop-opacity="1" stop-color="rgb(16.76178%, 67.146301%, 88.890076%)" offset="0.460937"/><stop stop-opacity="1" stop-color="rgb(16.729736%, 66.912842%, 88.7146%)" offset="0.464844"/><stop stop-opacity="1" stop-color="rgb(16.697693%, 66.679382%, 88.540649%)" offset="0.46875"/><stop stop-opacity="1" stop-color="rgb(16.665649%, 66.445923%, 88.365173%)" offset="0.472656"/><stop stop-opacity="1" stop-color="rgb(16.633606%, 66.213989%, 88.191223%)" offset="0.476562"/><stop stop-opacity="1" stop-color="rgb(16.600037%, 65.98053%, 88.015747%)" offset="0.480469"/><stop stop-opacity="1" stop-color="rgb(16.567993%, 65.748596%, 87.841797%)" offset="0.484375"/><stop stop-opacity="1" stop-color="rgb(16.53595%, 65.515137%, 87.666321%)" offset="0.488281"/><stop stop-opacity="1" stop-color="rgb(16.503906%, 65.281677%, 87.492371%)" offset="0.492188"/><stop stop-opacity="1" stop-color="rgb(16.470337%, 65.048218%, 87.316895%)" offset="0.496094"/><stop stop-opacity="1" stop-color="rgb(16.438293%, 64.816284%, 87.142944%)" offset="0.5"/><stop stop-opacity="1" stop-color="rgb(16.40625%, 64.582825%, 86.967468%)" offset="0.503906"/><stop stop-opacity="1" stop-color="rgb(16.374207%, 64.350891%, 86.793518%)" offset="0.507813"/><stop stop-opacity="1" stop-color="rgb(16.342163%, 64.117432%, 86.618042%)" offset="0.511719"/><stop stop-opacity="1" stop-color="rgb(16.31012%, 63.883972%, 86.444092%)" offset="0.515625"/><stop stop-opacity="1" stop-color="rgb(16.27655%, 63.650513%, 86.268616%)" offset="0.519531"/><stop stop-opacity="1" stop-color="rgb(16.244507%, 63.418579%, 86.094666%)" offset="0.523438"/><stop stop-opacity="1" stop-color="rgb(16.212463%, 63.18512%, 85.919189%)" offset="0.527344"/><stop stop-opacity="1" stop-color="rgb(16.18042%, 62.95166%, 85.745239%)" offset="0.53125"/><stop stop-opacity="1" stop-color="rgb(16.146851%, 62.718201%, 85.569763%)" offset="0.535156"/><stop stop-opacity="1" stop-color="rgb(16.114807%, 62.486267%, 85.395813%)" offset="0.539062"/><stop stop-opacity="1" stop-color="rgb(16.082764%, 62.252808%, 85.220337%)" offset="0.542969"/><stop stop-opacity="1" stop-color="rgb(16.05072%, 62.020874%, 85.046387%)" offset="0.546875"/><stop stop-opacity="1" stop-color="rgb(16.018677%, 61.787415%, 84.870911%)" offset="0.550781"/><stop stop-opacity="1" stop-color="rgb(15.986633%, 61.553955%, 84.69696%)" offset="0.554688"/><stop stop-opacity="1" stop-color="rgb(15.953064%, 61.320496%, 84.521484%)" offset="0.558594"/><stop stop-opacity="1" stop-color="rgb(15.921021%, 61.088562%, 84.347534%)" offset="0.5625"/><stop stop-opacity="1" stop-color="rgb(15.888977%, 60.855103%, 84.172058%)" offset="0.566406"/><stop stop-opacity="1" stop-color="rgb(15.856934%, 60.623169%, 83.998108%)" offset="0.570312"/><stop stop-opacity="1" stop-color="rgb(15.82489%, 60.389709%, 83.822632%)" offset="0.574219"/><stop stop-opacity="1" stop-color="rgb(15.792847%, 60.15625%, 83.648682%)" offset="0.578125"/><stop stop-opacity="1" stop-color="rgb(15.759277%, 59.922791%, 83.473206%)" offset="0.582031"/><stop stop-opacity="1" stop-color="rgb(15.727234%, 59.690857%, 83.299255%)" offset="0.585938"/><stop stop-opacity="1" stop-color="rgb(15.69519%, 59.457397%, 83.123779%)" offset="0.589844"/><stop stop-opacity="1" stop-color="rgb(15.663147%, 59.223938%, 82.949829%)" offset="0.59375"/><stop stop-opacity="1" stop-color="rgb(15.629578%, 58.990479%, 82.774353%)" offset="0.597656"/><stop stop-opacity="1" stop-color="rgb(15.597534%, 58.758545%, 82.600403%)" offset="0.601562"/><stop stop-opacity="1" stop-color="rgb(15.565491%, 58.525085%, 82.424927%)" offset="0.605469"/><stop stop-opacity="1" stop-color="rgb(15.533447%, 58.293152%, 82.250977%)" offset="0.609375"/><stop stop-opacity="1" stop-color="rgb(15.501404%, 58.059692%, 82.0755%)" offset="0.613281"/><stop stop-opacity="1" stop-color="rgb(15.46936%, 57.826233%, 81.90155%)" offset="0.617188"/><stop stop-opacity="1" stop-color="rgb(15.435791%, 57.592773%, 81.726074%)" offset="0.621094"/><stop stop-opacity="1" stop-color="rgb(15.403748%, 57.36084%, 81.552124%)" offset="0.625"/><stop stop-opacity="1" stop-color="rgb(15.371704%, 57.12738%, 81.376648%)" offset="0.628906"/><stop stop-opacity="1" stop-color="rgb(15.339661%, 56.895447%, 81.202698%)" offset="0.632812"/><stop stop-opacity="1" stop-color="rgb(15.306091%, 56.661987%, 81.027222%)" offset="0.636719"/><stop stop-opacity="1" stop-color="rgb(15.274048%, 56.428528%, 80.853271%)" offset="0.640625"/><stop stop-opacity="1" stop-color="rgb(15.242004%, 56.195068%, 80.677795%)" offset="0.644531"/><stop stop-opacity="1" stop-color="rgb(15.209961%, 55.963135%, 80.503845%)" offset="0.648438"/><stop stop-opacity="1" stop-color="rgb(15.177917%, 55.729675%, 80.328369%)" offset="0.652344"/><stop stop-opacity="1" stop-color="rgb(15.145874%, 55.496216%, 80.154419%)" offset="0.65625"/><stop stop-opacity="1" stop-color="rgb(15.112305%, 55.262756%, 79.978943%)" offset="0.660156"/><stop stop-opacity="1" stop-color="rgb(15.080261%, 55.030823%, 79.804993%)" offset="0.664062"/><stop stop-opacity="1" stop-color="rgb(15.048218%, 54.797363%, 79.629517%)" offset="0.667969"/><stop stop-opacity="1" stop-color="rgb(15.016174%, 54.56543%, 79.455566%)" offset="0.671875"/><stop stop-opacity="1" stop-color="rgb(14.982605%, 54.33197%, 79.28009%)" offset="0.675781"/><stop stop-opacity="1" stop-color="rgb(14.950562%, 54.098511%, 79.10614%)" offset="0.679688"/><stop stop-opacity="1" stop-color="rgb(14.918518%, 53.865051%, 78.930664%)" offset="0.683594"/><stop stop-opacity="1" stop-color="rgb(14.886475%, 53.633118%, 78.756714%)" offset="0.6875"/><stop stop-opacity="1" stop-color="rgb(14.854431%, 53.399658%, 78.581238%)" offset="0.691406"/><stop stop-opacity="1" stop-color="rgb(14.822388%, 53.167725%, 78.407288%)" offset="0.695312"/><stop stop-opacity="1" stop-color="rgb(14.788818%, 52.934265%, 78.231812%)" offset="0.699219"/><stop stop-opacity="1" stop-color="rgb(14.756775%, 52.700806%, 78.057861%)" offset="0.703125"/><stop stop-opacity="1" stop-color="rgb(14.724731%, 52.467346%, 77.882385%)" offset="0.707031"/><stop stop-opacity="1" stop-color="rgb(14.692688%, 52.235413%, 77.708435%)" offset="0.710938"/><stop stop-opacity="1" stop-color="rgb(14.659119%, 52.001953%, 77.532959%)" offset="0.714844"/><stop stop-opacity="1" stop-color="rgb(14.627075%, 51.77002%, 77.359009%)" offset="0.71875"/><stop stop-opacity="1" stop-color="rgb(14.595032%, 51.53656%, 77.183533%)" offset="0.722656"/><stop stop-opacity="1" stop-color="rgb(14.562988%, 51.303101%, 77.009583%)" offset="0.726562"/><stop stop-opacity="1" stop-color="rgb(14.530945%, 51.069641%, 76.834106%)" offset="0.730469"/><stop stop-opacity="1" stop-color="rgb(14.498901%, 50.837708%, 76.660156%)" offset="0.734375"/><stop stop-opacity="1" stop-color="rgb(14.465332%, 50.604248%, 76.48468%)" offset="0.738281"/><stop stop-opacity="1" stop-color="rgb(14.433289%, 50.370789%, 76.31073%)" offset="0.742188"/><stop stop-opacity="1" stop-color="rgb(14.401245%, 50.137329%, 76.135254%)" offset="0.746094"/><stop stop-opacity="1" stop-color="rgb(14.369202%, 49.905396%, 75.961304%)" offset="0.75"/><stop stop-opacity="1" stop-color="rgb(14.335632%, 49.671936%, 75.785828%)" offset="0.753906"/><stop stop-opacity="1" stop-color="rgb(14.303589%, 49.440002%, 75.611877%)" offset="0.757813"/><stop stop-opacity="1" stop-color="rgb(14.271545%, 49.206543%, 75.436401%)" offset="0.761719"/><stop stop-opacity="1" stop-color="rgb(14.239502%, 48.973083%, 75.262451%)" offset="0.765625"/><stop stop-opacity="1" stop-color="rgb(14.207458%, 48.739624%, 75.086975%)" offset="0.769531"/><stop stop-opacity="1" stop-color="rgb(14.175415%, 48.50769%, 74.913025%)" offset="0.773438"/><stop stop-opacity="1" stop-color="rgb(14.141846%, 48.274231%, 74.737549%)" offset="0.777344"/><stop stop-opacity="1" stop-color="rgb(14.109802%, 48.042297%, 74.563599%)" offset="0.78125"/><stop stop-opacity="1" stop-color="rgb(14.077759%, 47.808838%, 74.388123%)" offset="0.785156"/><stop stop-opacity="1" stop-color="rgb(14.045715%, 47.575378%, 74.214172%)" offset="0.789062"/><stop stop-opacity="1" stop-color="rgb(14.012146%, 47.341919%, 74.038696%)" offset="0.792969"/><stop stop-opacity="1" stop-color="rgb(13.980103%, 47.109985%, 73.864746%)" offset="0.796875"/><stop stop-opacity="1" stop-color="rgb(13.948059%, 46.876526%, 73.68927%)" offset="0.800781"/><stop stop-opacity="1" stop-color="rgb(13.916016%, 46.643066%, 73.51532%)" offset="0.804688"/><stop stop-opacity="1" stop-color="rgb(13.883972%, 46.409607%, 73.339844%)" offset="0.808594"/><stop stop-opacity="1" stop-color="rgb(13.851929%, 46.177673%, 73.165894%)" offset="0.8125"/><stop stop-opacity="1" stop-color="rgb(13.818359%, 45.944214%, 72.990417%)" offset="0.816406"/><stop stop-opacity="1" stop-color="rgb(13.786316%, 45.71228%, 72.816467%)" offset="0.820313"/><stop stop-opacity="1" stop-color="rgb(13.754272%, 45.478821%, 72.640991%)" offset="0.824219"/><stop stop-opacity="1" stop-color="rgb(13.722229%, 45.245361%, 72.467041%)" offset="0.828125"/><stop stop-opacity="1" stop-color="rgb(13.68866%, 45.011902%, 72.291565%)" offset="0.832031"/><stop stop-opacity="1" stop-color="rgb(13.656616%, 44.779968%, 72.117615%)" offset="0.835938"/><stop stop-opacity="1" stop-color="rgb(13.624573%, 44.546509%, 71.942139%)" offset="0.839844"/><stop stop-opacity="1" stop-color="rgb(13.592529%, 44.314575%, 71.768188%)" offset="0.84375"/><stop stop-opacity="1" stop-color="rgb(13.560486%, 44.081116%, 71.592712%)" offset="0.847656"/><stop stop-opacity="1" stop-color="rgb(13.528442%, 43.847656%, 71.418762%)" offset="0.851562"/><stop stop-opacity="1" stop-color="rgb(13.494873%, 43.614197%, 71.243286%)" offset="0.855469"/><stop stop-opacity="1" stop-color="rgb(13.46283%, 43.382263%, 71.069336%)" offset="0.859375"/><stop stop-opacity="1" stop-color="rgb(13.430786%, 43.148804%, 70.89386%)" offset="0.863281"/><stop stop-opacity="1" stop-color="rgb(13.398743%, 42.915344%, 70.718384%)" offset="0.867188"/><stop stop-opacity="1" stop-color="rgb(13.365173%, 42.681885%, 70.542908%)" offset="0.871094"/><stop stop-opacity="1" stop-color="rgb(13.33313%, 42.449951%, 70.368958%)" offset="0.875"/><stop stop-opacity="1" stop-color="rgb(13.301086%, 42.216492%, 70.193481%)" offset="0.878906"/><stop stop-opacity="1" stop-color="rgb(13.269043%, 41.984558%, 70.019531%)" offset="0.882812"/><stop stop-opacity="1" stop-color="rgb(13.237%, 41.751099%, 69.844055%)" offset="0.886719"/><stop stop-opacity="1" stop-color="rgb(13.204956%, 41.517639%, 69.670105%)" offset="0.890625"/><stop stop-opacity="1" stop-color="rgb(13.171387%, 41.28418%, 69.494629%)" offset="0.894531"/><stop stop-opacity="1" stop-color="rgb(13.139343%, 41.052246%, 69.320679%)" offset="0.898438"/><stop stop-opacity="1" stop-color="rgb(13.1073%, 40.818787%, 69.145203%)" offset="0.902344"/><stop stop-opacity="1" stop-color="rgb(13.075256%, 40.586853%, 68.971252%)" offset="0.90625"/><stop stop-opacity="1" stop-color="rgb(13.041687%, 40.353394%, 68.795776%)" offset="0.910156"/><stop stop-opacity="1" stop-color="rgb(13.009644%, 40.119934%, 68.621826%)" offset="0.914063"/><stop stop-opacity="1" stop-color="rgb(12.9776%, 39.886475%, 68.44635%)" offset="0.917969"/><stop stop-opacity="1" stop-color="rgb(12.945557%, 39.654541%, 68.2724%)" offset="0.921875"/><stop stop-opacity="1" stop-color="rgb(12.942505%, 39.631653%, 68.255615%)" offset="0.9375"/><stop stop-opacity="1" stop-color="rgb(12.939453%, 39.608765%, 68.238831%)" offset="1"/></linearGradient><clipPath id="6b2c86ccf2"><rect x="0" width="178" y="0" height="48"/></clipPath><clipPath id="a07fcd2e90"><path d="M 0.835938 0 L 177.164062 0 L 177.164062 47.019531 L 0.835938 47.019531 Z M 0.835938 0 " clip-rule="nonzero"/></clipPath><clipPath id="2247126e9f"><rect x="0" width="178" y="0" height="48"/></clipPath><clipPath id="293f12d0c4"><rect x="0" width="178" y="0" height="48"/></clipPath><mask id="01c8c61617"><g filter="url(#b473cbbef7)"><g transform="matrix(1, 0, 0, 1, 0.000000000000000222, 0.000000000000005041)"><g clip-path="url(#293f12d0c4)"><g clip-path="url(#a07fcd2e90)"><g transform="matrix(1, 0, 0, 1, 0.000000000000000222, 0.000000000000005041)"><g clip-path="url(#2247126e9f)"><g fill="#000000" fill-opacity="1"><g transform="translate(35.559983, 31.080711)"><g><path d="M 11.4375 -19.046875 L 11.4375 -14.484375 L 7.65625 -14.484375 C 7.09375 -14.484375 6.6875 -14.363281 6.4375 -14.125 C 6.1875 -13.882812 6.0625 -13.53125 6.0625 -13.0625 L 6.0625 -11.21875 L 11.4375 -11.21875 L 11.4375 -6.8125 L 6.0625 -6.8125 L 6.0625 0 L 1.328125 0 L 1.328125 -13.34375 C 1.328125 -14.132812 1.460938 -14.878906 1.734375 -15.578125 C 2.015625 -16.273438 2.394531 -16.882812 2.875 -17.40625 C 3.351562 -17.925781 3.929688 -18.328125 4.609375 -18.609375 C 5.296875 -18.898438 6.046875 -19.046875 6.859375 -19.046875 Z M 11.4375 -19.046875 "/></g></g></g><g fill="#000000" fill-opacity="1"><g transform="translate(47.639709, 31.080711)"><g><path d="M 6.15625 -19.046875 L 6.15625 0 L 1.421875 0 L 1.421875 -19.046875 Z M 6.15625 -19.046875 "/></g></g></g><g fill="#000000" fill-opacity="1"><g transform="translate(55.203134, 31.080711)"><g><path d="M 6.125 -19.046875 L 6.125 -6.5 C 6.125 -5.78125 6.285156 -5.28125 6.609375 -5 C 6.941406 -4.71875 7.550781 -4.578125 8.4375 -4.578125 L 11.78125 -4.578125 L 11.78125 0 L 8 0 C 5.726562 0 4.054688 -0.476562 2.984375 -1.4375 C 1.921875 -2.40625 1.390625 -3.929688 1.390625 -6.015625 L 1.390625 -19.046875 Z M 6.125 -19.046875 "/></g></g></g><g fill="#000000" fill-opacity="1"><g transform="translate(67.282859, 31.080711)"><g><path d="M 12.296875 -19.046875 L 12.296875 -14.640625 L 11.84375 -14.640625 C 11.226562 -14.640625 10.539062 -14.609375 9.78125 -14.546875 C 9.03125 -14.484375 8.363281 -14.296875 7.78125 -13.984375 C 7.382812 -13.765625 7.050781 -13.457031 6.78125 -13.0625 C 6.507812 -12.664062 6.234375 -12.175781 5.953125 -11.59375 L 12.296875 -11.59375 L 12.296875 -7.453125 L 5.953125 -7.453125 C 6.210938 -6.859375 6.472656 -6.375 6.734375 -6 C 6.992188 -5.625 7.289062 -5.320312 7.625 -5.09375 C 7.96875 -4.875 8.363281 -4.710938 8.8125 -4.609375 C 9.269531 -4.515625 9.816406 -4.457031 10.453125 -4.4375 C 10.722656 -4.414062 11.007812 -4.40625 11.3125 -4.40625 C 11.613281 -4.40625 11.941406 -4.40625 12.296875 -4.40625 L 12.296875 0 L 9.5 0 C 8.28125 0 7.148438 -0.238281 6.109375 -0.71875 C 5.066406 -1.195312 4.160156 -1.863281 3.390625 -2.71875 C 2.617188 -3.570312 2.007812 -4.578125 1.5625 -5.734375 C 1.113281 -6.898438 0.890625 -8.164062 0.890625 -9.53125 C 0.890625 -10.875 1.109375 -12.125 1.546875 -13.28125 C 1.984375 -14.445312 2.585938 -15.453125 3.359375 -16.296875 C 4.128906 -17.148438 5.035156 -17.820312 6.078125 -18.3125 C 7.128906 -18.800781 8.269531 -19.046875 9.5 -19.046875 Z M 12.296875 -19.046875 "/></g></g></g><g fill="#000000" fill-opacity="1"><g transform="translate(80.886152, 31.080711)"><g><path d="M 11.8125 -8.984375 L 11.875 -8.984375 L 11.875 -19.046875 L 16.609375 -19.046875 L 16.609375 -2.375 C 16.609375 -1.988281 16.535156 -1.628906 16.390625 -1.296875 C 16.253906 -0.972656 16.066406 -0.6875 15.828125 -0.4375 C 15.597656 -0.195312 15.332031 -0.0078125 15.03125 0.125 C 14.738281 0.257812 14.425781 0.328125 14.09375 0.328125 C 13.332031 0.328125 12.707031 0.0703125 12.21875 -0.4375 C 11.726562 -0.945312 11.226562 -1.691406 10.71875 -2.671875 L 6.3125 -11.15625 L 6.265625 -11.15625 L 6.265625 0 L 1.53125 0 L 1.53125 -16.84375 C 1.53125 -17.1875 1.597656 -17.515625 1.734375 -17.828125 C 1.867188 -18.140625 2.054688 -18.40625 2.296875 -18.625 C 2.546875 -18.851562 2.84375 -19.035156 3.1875 -19.171875 C 3.53125 -19.304688 3.910156 -19.375 4.328125 -19.375 C 5.203125 -19.375 5.882812 -19.195312 6.375 -18.84375 C 6.863281 -18.488281 7.257812 -18.015625 7.5625 -17.421875 Z M 11.8125 -8.984375 "/></g></g></g><g fill="#000000" fill-opacity="1"><g transform="translate(99.032943, 31.080711)"><g><path d="M 12.296875 -19.046875 L 12.296875 -14.640625 L 11.84375 -14.640625 C 11.226562 -14.640625 10.539062 -14.609375 9.78125 -14.546875 C 9.03125 -14.484375 8.363281 -14.296875 7.78125 -13.984375 C 7.382812 -13.765625 7.050781 -13.457031 6.78125 -13.0625 C 6.507812 -12.664062 6.234375 -12.175781 5.953125 -11.59375 L 12.296875 -11.59375 L 12.296875 -7.453125 L 5.953125 -7.453125 C 6.210938 -6.859375 6.472656 -6.375 6.734375 -6 C 6.992188 -5.625 7.289062 -5.320312 7.625 -5.09375 C 7.96875 -4.875 8.363281 -4.710938 8.8125 -4.609375 C 9.269531 -4.515625 9.816406 -4.457031 10.453125 -4.4375 C 10.722656 -4.414062 11.007812 -4.40625 11.3125 -4.40625 C 11.613281 -4.40625 11.941406 -4.40625 12.296875 -4.40625 L 12.296875 0 L 9.5 0 C 8.28125 0 7.148438 -0.238281 6.109375 -0.71875 C 5.066406 -1.195312 4.160156 -1.863281 3.390625 -2.71875 C 2.617188 -3.570312 2.007812 -4.578125 1.5625 -5.734375 C 1.113281 -6.898438 0.890625 -8.164062 0.890625 -9.53125 C 0.890625 -10.875 1.109375 -12.125 1.546875 -13.28125 C 1.984375 -14.445312 2.585938 -15.453125 3.359375 -16.296875 C 4.128906 -17.148438 5.035156 -17.820312 6.078125 -18.3125 C 7.128906 -18.800781 8.269531 -19.046875 9.5 -19.046875 Z M 12.296875 -19.046875 "/></g></g></g><g fill="#000000" fill-opacity="1"><g transform="translate(112.636236, 31.080711)"><g><path d="M 6.453125 -19.046875 L 6.453125 -6.34375 C 6.453125 -4.945312 6.992188 -4.25 8.078125 -4.25 C 9.171875 -4.25 9.71875 -4.945312 9.71875 -6.34375 L 9.71875 -19.046875 L 14.453125 -19.046875 L 14.453125 -6.34375 C 14.453125 -4.945312 15 -4.25 16.09375 -4.25 C 17.175781 -4.25 17.71875 -4.945312 17.71875 -6.34375 L 17.71875 -19.046875 L 22.453125 -19.046875 L 22.453125 -5.53125 C 22.453125 -4.6875 22.316406 -3.910156 22.046875 -3.203125 C 21.773438 -2.503906 21.375 -1.890625 20.84375 -1.359375 C 20.320312 -0.835938 19.675781 -0.425781 18.90625 -0.125 C 18.132812 0.175781 17.25 0.328125 16.25 0.328125 C 15.4375 0.328125 14.648438 0.179688 13.890625 -0.109375 C 13.140625 -0.398438 12.535156 -0.875 12.078125 -1.53125 C 11.628906 -0.875 11.023438 -0.398438 10.265625 -0.109375 C 9.515625 0.179688 8.734375 0.328125 7.921875 0.328125 C 6.941406 0.328125 6.066406 0.179688 5.296875 -0.109375 C 4.523438 -0.398438 3.867188 -0.804688 3.328125 -1.328125 C 2.796875 -1.859375 2.394531 -2.476562 2.125 -3.1875 C 1.851562 -3.894531 1.71875 -4.675781 1.71875 -5.53125 L 1.71875 -19.046875 Z M 6.453125 -19.046875 "/></g></g></g><g fill="#000000" fill-opacity="1"><g transform="translate(136.822883, 31.080711)"><g><path d="M 12.296875 -19.046875 L 12.296875 -14.640625 L 11.84375 -14.640625 C 11.226562 -14.640625 10.539062 -14.609375 9.78125 -14.546875 C 9.03125 -14.484375 8.363281 -14.296875 7.78125 -13.984375 C 7.382812 -13.765625 7.050781 -13.457031 6.78125 -13.0625 C 6.507812 -12.664062 6.234375 -12.175781 5.953125 -11.59375 L 12.296875 -11.59375 L 12.296875 -7.453125 L 5.953125 -7.453125 C 6.210938 -6.859375 6.472656 -6.375 6.734375 -6 C 6.992188 -5.625 7.289062 -5.320312 7.625 -5.09375 C 7.96875 -4.875 8.363281 -4.710938 8.8125 -4.609375 C 9.269531 -4.515625 9.816406 -4.457031 10.453125 -4.4375 C 10.722656 -4.414062 11.007812 -4.40625 11.3125 -4.40625 C 11.613281 -4.40625 11.941406 -4.40625 12.296875 -4.40625 L 12.296875 0 L 9.5 0 C 8.28125 0 7.148438 -0.238281 6.109375 -0.71875 C 5.066406 -1.195312 4.160156 -1.863281 3.390625 -2.71875 C 2.617188 -3.570312 2.007812 -4.578125 1.5625 -5.734375 C 1.113281 -6.898438 0.890625 -8.164062 0.890625 -9.53125 C 0.890625 -10.875 1.109375 -12.125 1.546875 -13.28125 C 1.984375 -14.445312 2.585938 -15.453125 3.359375 -16.296875 C 4.128906 -17.148438 5.035156 -17.820312 6.078125 -18.3125 C 7.128906 -18.800781 8.269531 -19.046875 9.5 -19.046875 Z M 12.296875 -19.046875 "/></g></g></g><g fill="#000000" fill-opacity="1"><g transform="translate(150.426176, 31.080711)"><g><path d="M 14.59375 -13.71875 C 14.59375 -11.320312 13.507812 -10.015625 11.34375 -9.796875 L 11.34375 -9.75 C 11.476562 -9.707031 11.671875 -9.660156 11.921875 -9.609375 C 12.171875 -9.554688 12.367188 -9.507812 12.515625 -9.46875 C 13.265625 -9.238281 13.800781 -8.957031 14.125 -8.625 C 14.632812 -8.132812 14.890625 -7.457031 14.890625 -6.59375 L 14.890625 0 L 10.09375 0 L 10.09375 -5.796875 C 10.09375 -6.253906 9.929688 -6.601562 9.609375 -6.84375 C 9.296875 -7.09375 8.671875 -7.234375 7.734375 -7.265625 L 7.234375 -7.265625 L 7.234375 -11.5625 C 8.109375 -11.5625 8.753906 -11.6875 9.171875 -11.9375 C 9.585938 -12.195312 9.796875 -12.707031 9.796875 -13.46875 C 9.796875 -14 9.609375 -14.378906 9.234375 -14.609375 C 8.867188 -14.847656 8.492188 -14.96875 8.109375 -14.96875 C 7.492188 -14.96875 7.050781 -14.765625 6.78125 -14.359375 C 6.519531 -13.960938 6.390625 -13.332031 6.390625 -12.46875 L 6.390625 0 L 1.4375 0 L 1.4375 -12.46875 C 1.4375 -13.5 1.59375 -14.441406 1.90625 -15.296875 C 2.21875 -16.148438 2.660156 -16.875 3.234375 -17.46875 C 3.816406 -18.070312 4.523438 -18.539062 5.359375 -18.875 C 6.191406 -19.207031 7.144531 -19.375 8.21875 -19.375 C 9.125 -19.375 9.96875 -19.25 10.75 -19 C 11.53125 -18.757812 12.207031 -18.40625 12.78125 -17.9375 C 13.351562 -17.46875 13.796875 -16.878906 14.109375 -16.171875 C 14.429688 -15.460938 14.59375 -14.644531 14.59375 -13.71875 Z M 14.59375 -13.71875 "/></g></g></g></g></g></g></g></g></g></mask><clipPath id="f211311fdc"><path d="M 0.835938 0 L 177.164062 0 L 177.164062 47.019531 L 0.835938 47.019531 Z M 0.835938 0 " clip-rule="nonzero"/></clipPath><clipPath id="5e68a83285"><rect x="0" width="178" y="0" height="48"/></clipPath><clipPath id="fcea31c3b8"><rect x="0" width="178" y="0" height="48"/></clipPath></defs><g clip-path="url(#9f9dd43f74)"><path fill="#30d1ff" d="M 7.394531 16.671875 L 22.871094 4.128906 C 25.078125 2.351562 28.308594 2.675781 30.085938 4.882812 C 31.863281 7.089844 31.511719 10.320312 29.304688 12.097656 L 13.828125 24.613281 C 12.242188 25.902344 11.378906 27.789062 11.324219 29.671875 L 6.644531 23.882812 L 6.617188 23.859375 C 4.839844 21.675781 5.1875 18.449219 7.394531 16.671875 Z M 7.394531 16.671875 " fill-opacity="1" fill-rule="evenodd"/></g><g clip-path="url(#759d6cd2d8)"><path fill="#0372ff" d="M 22.171875 34.921875 C 24.351562 33.144531 27.582031 33.492188 29.359375 35.699219 C 31.132812 37.878906 30.8125 41.109375 28.605469 42.886719 C 26.398438 44.664062 23.167969 44.339844 21.390625 42.132812 C 19.613281 39.925781 19.964844 36.695312 22.171875 34.921875 Z M 22.171875 34.921875 " fill-opacity="1" fill-rule="evenodd"/></g><path fill="#30d1ff" d="M 22.871094 19.390625 C 25.078125 17.585938 28.28125 17.9375 30.058594 20.144531 C 31.863281 22.324219 31.511719 25.554688 29.304688 27.328125 L 21.285156 33.84375 C 19.667969 35.136719 18.835938 37.046875 18.863281 38.984375 L 14.097656 33.089844 L 14.070312 33.089844 C 12.292969 30.882812 12.644531 27.652344 14.824219 25.875 L 14.851562 25.875 Z M 22.871094 19.390625 " fill-opacity="1" fill-rule="evenodd"/><g clip-path="url(#682eaad8ad)"><g transform="matrix(1, 0, 0, 1, 1, 0.000000000000005041)"><g clip-path="url(#fcea31c3b8)"><g clip-path="url(#da4acade7b)"><g mask="url(#01c8c61617)"><g transform="matrix(1, 0, 0, 1, 0.000000000000000222, 0.000000000000005041)"><g clip-path="url(#5e68a83285)"><g clip-path="url(#f211311fdc)"><path fill="url(#b4106e3d45)" d="M 0.835938 0 L 0.835938 47.019531 L 177.164062 47.019531 L 177.164062 0 Z M 0.835938 0 " fill-rule="nonzero"/></g></g></g></g></g></g></g></g></svg>