<svg xmlns="http://www.w3.org/2000/svg" width="240" height="64" version="1.0" viewBox="0 0 180 48"><defs><clipPath id="e"><path d="M5 2.352h27V30H5Zm0 0"/></clipPath><clipPath id="f"><path d="M20 33h11v11.965H20Zm0 0"/></clipPath><clipPath id="g"><path d="M1.836 0h176.328v47.02H1.836Zm0 0"/></clipPath><clipPath id="i"><path d="M.836 0h176.328v47.02H.836Zm0 0"/></clipPath><clipPath id="c"><path d="M.836 0h176.328v47.02H.836Zm0 0"/></clipPath><clipPath id="d"><path d="M0 0h178v48H0z"/></clipPath><clipPath id="b"><path d="M0 0h178v48H0z"/></clipPath><clipPath id="l"><path d="M.836 0h176.328v47.02H.836Zm0 0"/></clipPath><clipPath id="k"><path d="M0 0h178v48H0z"/></clipPath><clipPath id="h"><path d="M0 0h178v48H0z"/></clipPath><linearGradient id="m" x1="3.182" x2="155.271" y1="-60.826" y2="91.263" gradientTransform="matrix(.73434 0 0 .73398 35.574 7.589)" gradientUnits="userSpaceOnUse"><stop offset="0" stop-color="#30D1FF"/><stop offset=".125" stop-color="#30D1FF"/><stop offset=".188" stop-color="#30D1FF"/><stop offset=".211" stop-color="#30D1FF"/><stop offset=".219" stop-color="#30D0FE"/><stop offset=".223" stop-color="#30CFFE"/><stop offset=".227" stop-color="#30CFFD"/><stop offset=".23" stop-color="#30CEFD"/><stop offset=".234" stop-color="#30CEFD"/><stop offset=".238" stop-color="#2FCDFC"/><stop offset=".242" stop-color="#2FCCFC"/><stop offset=".246" stop-color="#2FCCFB"/><stop offset=".25" stop-color="#2FCBFB"/><stop offset=".254" stop-color="#2FCBFA"/><stop offset=".258" stop-color="#2FCAFA"/><stop offset=".262" stop-color="#2FCAF9"/><stop offset=".266" stop-color="#2FC9F9"/><stop offset=".27" stop-color="#2FC8F8"/><stop offset=".273" stop-color="#2FC8F8"/><stop offset=".277" stop-color="#2FC7F8"/><stop offset=".281" stop-color="#2FC7F7"/><stop offset=".285" stop-color="#2EC6F7"/><stop offset=".289" stop-color="#2EC5F6"/><stop offset=".293" stop-color="#2EC5F6"/><stop offset=".297" stop-color="#2EC4F5"/><stop offset=".301" stop-color="#2EC4F5"/><stop offset=".305" stop-color="#2EC3F4"/><stop offset=".309" stop-color="#2EC2F4"/><stop offset=".313" stop-color="#2EC2F4"/><stop offset=".316" stop-color="#2EC1F3"/><stop offset=".32" stop-color="#2EC1F3"/><stop offset=".324" stop-color="#2EC0F2"/><stop offset=".328" stop-color="#2EBFF2"/><stop offset=".332" stop-color="#2DBFF1"/><stop offset=".336" stop-color="#2DBEF1"/><stop offset=".34" stop-color="#2DBEF0"/><stop offset=".344" stop-color="#2DBDF0"/><stop offset=".348" stop-color="#2DBCF0"/><stop offset=".352" stop-color="#2DBCEF"/><stop offset=".355" stop-color="#2DBBEF"/><stop offset=".359" stop-color="#2DBBEE"/><stop offset=".363" stop-color="#2DBAEE"/><stop offset=".367" stop-color="#2DB9ED"/><stop offset=".371" stop-color="#2DB9ED"/><stop offset=".375" stop-color="#2DB8EC"/><stop offset=".379" stop-color="#2CB8EC"/><stop offset=".383" stop-color="#2CB7EC"/><stop offset=".387" stop-color="#2CB7EB"/><stop offset=".391" stop-color="#2CB6EB"/><stop offset=".395" stop-color="#2CB5EA"/><stop offset=".398" stop-color="#2CB5EA"/><stop offset=".402" stop-color="#2CB4E9"/><stop offset=".406" stop-color="#2CB4E9"/><stop offset=".41" stop-color="#2CB3E8"/><stop offset=".414" stop-color="#2CB2E8"/><stop offset=".418" stop-color="#2CB2E8"/><stop offset=".422" stop-color="#2CB1E7"/><stop offset=".426" stop-color="#2BB1E7"/><stop offset=".43" stop-color="#2BB0E6"/><stop offset=".434" stop-color="#2BAFE6"/><stop offset=".438" stop-color="#2BAFE5"/><stop offset=".441" stop-color="#2BAEE5"/><stop offset=".445" stop-color="#2BAEE4"/><stop offset=".449" stop-color="#2BADE4"/><stop offset=".453" stop-color="#2BACE4"/><stop offset=".457" stop-color="#2BACE3"/><stop offset=".461" stop-color="#2BABE3"/><stop offset=".465" stop-color="#2BABE2"/><stop offset=".469" stop-color="#2BAAE2"/><stop offset=".473" stop-color="#2AA9E1"/><stop offset=".477" stop-color="#2AA9E1"/><stop offset=".48" stop-color="#2AA8E0"/><stop offset=".484" stop-color="#2AA8E0"/><stop offset=".488" stop-color="#2AA7E0"/><stop offset=".492" stop-color="#2AA6DF"/><stop offset=".496" stop-color="#2AA6DF"/><stop offset=".5" stop-color="#2AA5DE"/><stop offset=".504" stop-color="#2AA5DE"/><stop offset=".508" stop-color="#2AA4DD"/><stop offset=".512" stop-color="#2AA3DD"/><stop offset=".516" stop-color="#2AA3DC"/><stop offset=".52" stop-color="#2AA2DC"/><stop offset=".523" stop-color="#29A2DC"/><stop offset=".527" stop-color="#29A1DB"/><stop offset=".531" stop-color="#29A1DB"/><stop offset=".535" stop-color="#29A0DA"/><stop offset=".539" stop-color="#299FDA"/><stop offset=".543" stop-color="#299FD9"/><stop offset=".547" stop-color="#299ED9"/><stop offset=".551" stop-color="#299ED8"/><stop offset=".555" stop-color="#299DD8"/><stop offset=".559" stop-color="#299CD8"/><stop offset=".563" stop-color="#299CD7"/><stop offset=".566" stop-color="#299BD7"/><stop offset=".57" stop-color="#289BD6"/><stop offset=".574" stop-color="#289AD6"/><stop offset=".578" stop-color="#2899D5"/><stop offset=".582" stop-color="#2899D5"/><stop offset=".586" stop-color="#2898D4"/><stop offset=".59" stop-color="#2898D4"/><stop offset=".594" stop-color="#2897D4"/><stop offset=".598" stop-color="#2896D3"/><stop offset=".602" stop-color="#2896D3"/><stop offset=".605" stop-color="#2895D2"/><stop offset=".609" stop-color="#2895D2"/><stop offset=".613" stop-color="#2894D1"/><stop offset=".617" stop-color="#2793D1"/><stop offset=".621" stop-color="#2793D0"/><stop offset=".625" stop-color="#2792D0"/><stop offset=".629" stop-color="#2792D0"/><stop offset=".633" stop-color="#2791CF"/><stop offset=".637" stop-color="#2790CF"/><stop offset=".641" stop-color="#2790CE"/><stop offset=".645" stop-color="#278FCE"/><stop offset=".648" stop-color="#278FCD"/><stop offset=".652" stop-color="#278ECD"/><stop offset=".656" stop-color="#278ECC"/><stop offset=".66" stop-color="#278DCC"/><stop offset=".664" stop-color="#268CCC"/><stop offset=".668" stop-color="#268CCB"/><stop offset=".672" stop-color="#268BCB"/><stop offset=".676" stop-color="#268BCA"/><stop offset=".68" stop-color="#268ACA"/><stop offset=".684" stop-color="#2689C9"/><stop offset=".688" stop-color="#2689C9"/><stop offset=".691" stop-color="#2688C8"/><stop offset=".695" stop-color="#2688C8"/><stop offset=".699" stop-color="#2687C7"/><stop offset=".703" stop-color="#2686C7"/><stop offset=".707" stop-color="#2686C7"/><stop offset=".711" stop-color="#2585C6"/><stop offset=".715" stop-color="#2585C6"/><stop offset=".719" stop-color="#2584C5"/><stop offset=".723" stop-color="#2583C5"/><stop offset=".727" stop-color="#2583C4"/><stop offset=".73" stop-color="#2582C4"/><stop offset=".734" stop-color="#2582C3"/><stop offset=".738" stop-color="#2581C3"/><stop offset=".742" stop-color="#2580C3"/><stop offset=".746" stop-color="#2580C2"/><stop offset=".75" stop-color="#257FC2"/><stop offset=".754" stop-color="#257FC1"/><stop offset=".758" stop-color="#247EC1"/><stop offset=".762" stop-color="#247DC0"/><stop offset=".766" stop-color="#247DC0"/><stop offset=".77" stop-color="#247CBF"/><stop offset=".773" stop-color="#247CBF"/><stop offset=".777" stop-color="#247BBF"/><stop offset=".781" stop-color="#247BBE"/><stop offset=".785" stop-color="#247ABE"/><stop offset=".789" stop-color="#2479BD"/><stop offset=".793" stop-color="#2479BD"/><stop offset=".797" stop-color="#2478BC"/><stop offset=".801" stop-color="#2478BC"/><stop offset=".805" stop-color="#2377BB"/><stop offset=".809" stop-color="#2376BB"/><stop offset=".813" stop-color="#2376BB"/><stop offset=".816" stop-color="#2375BA"/><stop offset=".82" stop-color="#2375BA"/><stop offset=".824" stop-color="#2374B9"/><stop offset=".828" stop-color="#2373B9"/><stop offset=".832" stop-color="#2373B8"/><stop offset=".836" stop-color="#2372B8"/><stop offset=".84" stop-color="#2372B7"/><stop offset=".844" stop-color="#2371B7"/><stop offset=".848" stop-color="#2370B7"/><stop offset=".852" stop-color="#2270B6"/><stop offset=".855" stop-color="#226FB6"/><stop offset=".859" stop-color="#226FB5"/><stop offset=".863" stop-color="#226EB5"/><stop offset=".867" stop-color="#226DB4"/><stop offset=".871" stop-color="#226DB4"/><stop offset=".875" stop-color="#226CB3"/><stop offset=".879" stop-color="#226CB3"/><stop offset=".883" stop-color="#226BB3"/><stop offset=".887" stop-color="#226AB2"/><stop offset=".891" stop-color="#226AB2"/><stop offset=".895" stop-color="#2269B1"/><stop offset=".898" stop-color="#2269B1"/><stop offset=".902" stop-color="#2168B0"/><stop offset=".906" stop-color="#2167B0"/><stop offset=".91" stop-color="#2167AF"/><stop offset=".914" stop-color="#2166AF"/><stop offset=".918" stop-color="#2166AF"/><stop offset=".922" stop-color="#2165AE"/><stop offset=".938" stop-color="#2165AE"/><stop offset="1" stop-color="#2165AE"/></linearGradient><filter id="a" width="100%" height="100%" x="0%" y="0%"><feColorMatrix color-interpolation-filters="sRGB" values="0 0 0 0 1 0 0 0 0 1 0 0 0 0 1 0 0 0 1 0"/></filter><mask id="j"><g filter="url(#a)"><g clip-path="url(#b)"><g clip-path="url(#c)"><g clip-path="url(#d)"><path d="M46.997 12.034v4.562h-3.78q-.845 0-1.22.36c-.25.242-.375.593-.375 1.062v1.844h5.375v4.406h-5.375v6.813h-4.734V17.737q-.002-1.185.406-2.234a6 6 0 0 1 1.141-1.829 4.8 4.8 0 0 1 1.734-1.203 5.75 5.75 0 0 1 2.25-.437ZM53.796 12.034V31.08h-4.734V12.034ZM61.328 12.034V24.58q-.001 1.077.485 1.5.497.422 1.828.422h3.343v4.578h-3.78q-3.411.002-5.016-1.438c-1.063-.969-1.594-2.492-1.594-4.578V12.034ZM79.58 12.034v4.406h-.453q-.927 0-2.063.094-1.126.093-2 .562-.596.33-1 .922-.408.597-.828 1.469h6.344v4.14h-6.344q.388.891.781 1.454c.258.375.555.68.89.906a3.7 3.7 0 0 0 1.188.484 10 10 0 0 0 1.641.172c.27.024.555.031.86.031h.984v4.407h-2.797c-1.219 0-2.352-.239-3.39-.719a8.2 8.2 0 0 1-2.72-2q-1.16-1.28-1.828-3.016-.673-1.746-.672-3.797 0-2.015.657-3.75.654-1.748 1.812-3.015a8.5 8.5 0 0 1 2.719-2.016q1.575-.733 3.422-.734ZM92.699 22.096h.062V12.034h4.735v16.672q-.001.58-.22 1.078-.204.486-.562.86-.345.362-.797.562a2.25 2.25 0 0 1-.937.203q-1.143-.002-1.875-.766-.738-.763-1.5-2.234l-4.406-8.485h-.047v11.157h-4.735V14.237q0-.516.204-.984.199-.47.562-.797.375-.341.89-.547a3.1 3.1 0 0 1 1.141-.203c.875 0 1.555.18 2.047.531q.731.532 1.188 1.422ZM111.33 12.034v4.406h-.453q-.926 0-2.063.094-1.126.093-2 .562-.596.33-1 .922-.408.597-.828 1.469h6.344v4.14h-6.344q.388.891.781 1.454c.258.375.555.68.89.906a3.7 3.7 0 0 0 1.188.484 10 10 0 0 0 1.641.172c.27.024.555.031.86.031h.984v4.407h-2.797c-1.219 0-2.352-.239-3.39-.719a8.2 8.2 0 0 1-2.72-2q-1.16-1.28-1.828-3.016-.672-1.746-.671-3.797 0-2.015.656-3.75.654-1.748 1.812-3.015a8.5 8.5 0 0 1 2.72-2.016q1.575-.733 3.42-.734ZM119.09 12.034v12.703c0 1.398.538 2.094 1.624 2.094q1.641.002 1.641-2.094V12.034h4.734v12.703q0 2.096 1.641 2.094 1.624.002 1.625-2.094V12.034h4.734v13.515a6.5 6.5 0 0 1-.406 2.329 5.3 5.3 0 0 1-1.203 1.843q-.784.785-1.938 1.235-1.158.452-2.656.453a6.6 6.6 0 0 1-2.36-.438 3.85 3.85 0 0 1-1.812-1.422 3.8 3.8 0 0 1-1.812 1.422q-1.125.437-2.344.438c-.98 0-1.855-.149-2.625-.438a5.6 5.6 0 0 1-1.969-1.218 5.2 5.2 0 0 1-1.203-1.86q-.408-1.06-.406-2.344V12.034ZM149.12 12.034v4.406h-.453q-.927 0-2.063.094-1.126.093-2 .562-.596.33-1 .922-.408.597-.828 1.469h6.344v4.14h-6.344q.388.891.781 1.454c.258.375.555.68.89.906a3.7 3.7 0 0 0 1.188.484 10 10 0 0 0 1.641.172c.27.024.555.031.86.031h.984v4.407h-2.797c-1.219 0-2.352-.239-3.39-.719a8.2 8.2 0 0 1-2.72-2q-1.16-1.28-1.828-3.016-.672-1.746-.671-3.797 0-2.015.656-3.75.654-1.748 1.812-3.015a8.5 8.5 0 0 1 2.719-2.016q1.575-.733 3.422-.734ZM165.02 17.362c0 2.398-1.086 3.703-3.25 3.922v.047q.201.065.578.14c.25.055.445.102.594.141q1.124.346 1.61.844c.507.492.765 1.168.765 2.031v6.594h-4.797v-5.797q-.002-.685-.484-1.047-.47-.374-1.875-.422h-.5v-4.297q1.312 0 1.937-.375c.414-.258.625-.77.625-1.531q0-.796-.562-1.14-.552-.36-1.125-.36-.925 0-1.329.61-.39.596-.39 1.89v12.469h-4.953V18.612q0-1.546.468-2.828.468-1.28 1.329-2.172a6.05 6.05 0 0 1 2.125-1.406q1.248-.499 2.859-.5 1.36 0 2.531.375c.781.242 1.457.593 2.031 1.062a4.7 4.7 0 0 1 1.329 1.766c.32.71.484 1.527.484 2.453m0 0"/></g></g></g></g></mask></defs><g clip-path="url(#e)"><path fill="#30d1ff" fill-rule="evenodd" d="M7.395 16.672 22.87 4.129c2.207-1.777 5.438-1.453 7.215.754a5.13 5.13 0 0 1-.781 7.215L13.828 24.613a6.8 6.8 0 0 0-2.504 5.059l-4.68-5.79-.027-.023c-1.777-2.183-1.43-5.41.778-7.187m0 0"/></g><g clip-path="url(#f)"><path fill="#0372ff" fill-rule="evenodd" d="M22.172 34.922c2.18-1.777 5.41-1.43 7.187.777a5.1 5.1 0 0 1-.754 7.188c-2.207 1.777-5.437 1.453-7.214-.754a5.127 5.127 0 0 1 .78-7.211m0 0"/></g><path fill="#30d1ff" fill-rule="evenodd" d="M22.871 19.39a5.07 5.07 0 0 1 7.188.755c1.804 2.18 1.453 5.41-.754 7.183l-8.02 6.516a6.44 6.44 0 0 0-2.422 5.14l-4.765-5.894h-.028a5.153 5.153 0 0 1 .754-7.215h.028Zm0 0"/><g clip-path="url(#g)"><g clip-path="url(#h)" transform="translate(1)"><g clip-path="url(#i)" mask="url(#j)"><g clip-path="url(#k)"><g clip-path="url(#l)"><path fill="url(#m)" d="M.836 0v47.02h176.328V0Zm0 0"/></g></g></g></g></g></svg>